<mxfile host="app.diagrams.net" modified="2023-05-29T02:44:09.685Z" agent="Mozilla/5.0 (Windows NT 10.0; Win64; x64) AppleWebKit/537.36 (KHTML, like Gecko) Chrome/113.0.0.0 Safari/537.36" etag="B9I_MSCttOuslDWH2UGv" version="21.3.5" type="device">
  <diagram id="C5RBs43oDa-KdzZeNtuy" name="Page-1">
    <mxGraphModel dx="1354" dy="666" grid="1" gridSize="10" guides="1" tooltips="1" connect="1" arrows="1" fold="1" page="1" pageScale="1" pageWidth="827" pageHeight="1169" math="0" shadow="0">
      <root>
        <mxCell id="WIyWlLk6GJQsqaUBKTNV-0" />
        <mxCell id="WIyWlLk6GJQsqaUBKTNV-1" parent="WIyWlLk6GJQsqaUBKTNV-0" />
        <mxCell id="xFLIdx83Z1uAzU3ZvFWc-20" value="" style="ellipse;whiteSpace=wrap;html=1;aspect=fixed;" vertex="1" parent="WIyWlLk6GJQsqaUBKTNV-1">
          <mxGeometry x="1030" y="405" width="80" height="80" as="geometry" />
        </mxCell>
        <mxCell id="xFLIdx83Z1uAzU3ZvFWc-5" style="edgeStyle=orthogonalEdgeStyle;rounded=0;orthogonalLoop=1;jettySize=auto;html=1;" edge="1" parent="WIyWlLk6GJQsqaUBKTNV-1" source="xFLIdx83Z1uAzU3ZvFWc-1" target="xFLIdx83Z1uAzU3ZvFWc-2">
          <mxGeometry relative="1" as="geometry" />
        </mxCell>
        <mxCell id="xFLIdx83Z1uAzU3ZvFWc-1" value="Solicitud licencia, comision, llegada tarde" style="rounded=1;whiteSpace=wrap;html=1;" vertex="1" parent="WIyWlLk6GJQsqaUBKTNV-1">
          <mxGeometry x="120" y="90" width="120" height="60" as="geometry" />
        </mxCell>
        <mxCell id="xFLIdx83Z1uAzU3ZvFWc-7" style="edgeStyle=orthogonalEdgeStyle;rounded=0;orthogonalLoop=1;jettySize=auto;html=1;entryX=0;entryY=0.5;entryDx=0;entryDy=0;" edge="1" parent="WIyWlLk6GJQsqaUBKTNV-1" source="xFLIdx83Z1uAzU3ZvFWc-2" target="xFLIdx83Z1uAzU3ZvFWc-6">
          <mxGeometry relative="1" as="geometry" />
        </mxCell>
        <mxCell id="xFLIdx83Z1uAzU3ZvFWc-2" value="Determinacion de aprobacion de jefe directo" style="rounded=1;whiteSpace=wrap;html=1;" vertex="1" parent="WIyWlLk6GJQsqaUBKTNV-1">
          <mxGeometry x="330" y="90" width="120" height="60" as="geometry" />
        </mxCell>
        <mxCell id="xFLIdx83Z1uAzU3ZvFWc-4" style="edgeStyle=orthogonalEdgeStyle;rounded=0;orthogonalLoop=1;jettySize=auto;html=1;" edge="1" parent="WIyWlLk6GJQsqaUBKTNV-1" source="xFLIdx83Z1uAzU3ZvFWc-3" target="xFLIdx83Z1uAzU3ZvFWc-1">
          <mxGeometry relative="1" as="geometry" />
        </mxCell>
        <mxCell id="xFLIdx83Z1uAzU3ZvFWc-3" value="" style="ellipse;whiteSpace=wrap;html=1;aspect=fixed;" vertex="1" parent="WIyWlLk6GJQsqaUBKTNV-1">
          <mxGeometry x="10" y="95" width="50" height="50" as="geometry" />
        </mxCell>
        <mxCell id="xFLIdx83Z1uAzU3ZvFWc-9" value="SI" style="edgeStyle=orthogonalEdgeStyle;rounded=0;orthogonalLoop=1;jettySize=auto;html=1;" edge="1" parent="WIyWlLk6GJQsqaUBKTNV-1" source="xFLIdx83Z1uAzU3ZvFWc-6" target="xFLIdx83Z1uAzU3ZvFWc-8">
          <mxGeometry relative="1" as="geometry" />
        </mxCell>
        <mxCell id="xFLIdx83Z1uAzU3ZvFWc-15" value="NO" style="edgeStyle=orthogonalEdgeStyle;rounded=0;orthogonalLoop=1;jettySize=auto;html=1;entryX=0;entryY=0.5;entryDx=0;entryDy=0;" edge="1" parent="WIyWlLk6GJQsqaUBKTNV-1" source="xFLIdx83Z1uAzU3ZvFWc-6" target="xFLIdx83Z1uAzU3ZvFWc-14">
          <mxGeometry relative="1" as="geometry">
            <Array as="points">
              <mxPoint x="560" y="310" />
            </Array>
          </mxGeometry>
        </mxCell>
        <mxCell id="xFLIdx83Z1uAzU3ZvFWc-6" value="Aprobo?" style="rhombus;whiteSpace=wrap;html=1;" vertex="1" parent="WIyWlLk6GJQsqaUBKTNV-1">
          <mxGeometry x="520" y="80" width="80" height="80" as="geometry" />
        </mxCell>
        <mxCell id="xFLIdx83Z1uAzU3ZvFWc-11" style="edgeStyle=orthogonalEdgeStyle;rounded=0;orthogonalLoop=1;jettySize=auto;html=1;entryX=0;entryY=0.5;entryDx=0;entryDy=0;" edge="1" parent="WIyWlLk6GJQsqaUBKTNV-1" source="xFLIdx83Z1uAzU3ZvFWc-8" target="xFLIdx83Z1uAzU3ZvFWc-10">
          <mxGeometry relative="1" as="geometry" />
        </mxCell>
        <mxCell id="xFLIdx83Z1uAzU3ZvFWc-8" value="Determinacion de aprobacion del jefe de area" style="rounded=1;whiteSpace=wrap;html=1;" vertex="1" parent="WIyWlLk6GJQsqaUBKTNV-1">
          <mxGeometry x="680" y="90" width="120" height="60" as="geometry" />
        </mxCell>
        <mxCell id="xFLIdx83Z1uAzU3ZvFWc-13" value="SI" style="edgeStyle=orthogonalEdgeStyle;rounded=0;orthogonalLoop=1;jettySize=auto;html=1;entryX=0;entryY=0.5;entryDx=0;entryDy=0;" edge="1" parent="WIyWlLk6GJQsqaUBKTNV-1" source="xFLIdx83Z1uAzU3ZvFWc-10" target="xFLIdx83Z1uAzU3ZvFWc-12">
          <mxGeometry relative="1" as="geometry" />
        </mxCell>
        <mxCell id="xFLIdx83Z1uAzU3ZvFWc-16" value="NO" style="edgeStyle=orthogonalEdgeStyle;rounded=0;orthogonalLoop=1;jettySize=auto;html=1;entryX=0.25;entryY=0;entryDx=0;entryDy=0;" edge="1" parent="WIyWlLk6GJQsqaUBKTNV-1" source="xFLIdx83Z1uAzU3ZvFWc-10" target="xFLIdx83Z1uAzU3ZvFWc-14">
          <mxGeometry relative="1" as="geometry">
            <Array as="points">
              <mxPoint x="890" y="220" />
              <mxPoint x="1040" y="220" />
            </Array>
          </mxGeometry>
        </mxCell>
        <mxCell id="xFLIdx83Z1uAzU3ZvFWc-10" value="Aprobo?" style="rhombus;whiteSpace=wrap;html=1;" vertex="1" parent="WIyWlLk6GJQsqaUBKTNV-1">
          <mxGeometry x="850" y="80" width="80" height="80" as="geometry" />
        </mxCell>
        <mxCell id="xFLIdx83Z1uAzU3ZvFWc-18" style="edgeStyle=orthogonalEdgeStyle;rounded=0;orthogonalLoop=1;jettySize=auto;html=1;" edge="1" parent="WIyWlLk6GJQsqaUBKTNV-1" source="xFLIdx83Z1uAzU3ZvFWc-12" target="xFLIdx83Z1uAzU3ZvFWc-14">
          <mxGeometry relative="1" as="geometry" />
        </mxCell>
        <mxCell id="xFLIdx83Z1uAzU3ZvFWc-12" value="Procesamiento de ofincina RRHH" style="rounded=1;whiteSpace=wrap;html=1;" vertex="1" parent="WIyWlLk6GJQsqaUBKTNV-1">
          <mxGeometry x="1010" y="90" width="120" height="60" as="geometry" />
        </mxCell>
        <mxCell id="xFLIdx83Z1uAzU3ZvFWc-21" style="edgeStyle=orthogonalEdgeStyle;rounded=0;orthogonalLoop=1;jettySize=auto;html=1;entryX=0.5;entryY=0;entryDx=0;entryDy=0;" edge="1" parent="WIyWlLk6GJQsqaUBKTNV-1" source="xFLIdx83Z1uAzU3ZvFWc-14" target="xFLIdx83Z1uAzU3ZvFWc-20">
          <mxGeometry relative="1" as="geometry" />
        </mxCell>
        <mxCell id="xFLIdx83Z1uAzU3ZvFWc-14" value="Se notifica a empleado" style="rounded=1;whiteSpace=wrap;html=1;" vertex="1" parent="WIyWlLk6GJQsqaUBKTNV-1">
          <mxGeometry x="1010" y="280" width="120" height="60" as="geometry" />
        </mxCell>
        <mxCell id="xFLIdx83Z1uAzU3ZvFWc-19" value="" style="ellipse;whiteSpace=wrap;html=1;aspect=fixed;" vertex="1" parent="WIyWlLk6GJQsqaUBKTNV-1">
          <mxGeometry x="1045" y="420" width="50" height="50" as="geometry" />
        </mxCell>
      </root>
    </mxGraphModel>
  </diagram>
</mxfile>
